<svg id="Слой_1" data-name="Слой 1" xmlns="http://www.w3.org/2000/svg" viewBox="0 0 100 100"><defs><style>.cls-1{fill:#f2f2f2;}.cls-1,.cls-2{stroke:#333;stroke-width:2px;}.cls-2{fill:#333;}</style></defs><title>FB svg</title><path class="cls-1" d="M147,68.34a49,49,0,1,1-49-49A49,49,0,0,1,147,68.34Z" transform="translate(-48.04 -18.34)"/><path class="cls-2" d="M109.17,42.51l.86.12-.41,6.95a12.92,12.92,0,0,0-2.76-.17h-.12a5.86,5.86,0,0,0-5,2.45,8.71,8.71,0,0,0-1.48,5.07V60.1h7.61v6.7H100.3V95.6H90.89V66.8H86V60.1h4.89V57.47A19.73,19.73,0,0,1,92.05,51a12.19,12.19,0,0,1,3.37-5.21l0,0,0,0c2.46-2.47,6.51-3.51,9.62-3.51a26.44,26.44,0,0,1,3.46.26Z" transform="translate(-48.04 -18.34)"/></svg>