<svg id="Слой_1" data-name="Слой 1" xmlns="http://www.w3.org/2000/svg" viewBox="0 0 115 100"><defs><style>.cls-1{fill:none;stroke:#000;stroke-width:4px;}</style></defs><title>Like svg</title><path class="cls-1" d="M168.83,48.33l0,.17,0,.17a.32.32,0,0,1,0,.06.67.67,0,0,0,0,.17q0,.23.06.6a17.11,17.11,0,0,1,0,2.09A35.67,35.67,0,0,1,167.79,59v0h0A46.64,46.64,0,0,1,152.5,82.86l-39.38,32.87L74.38,82.87h0A46.59,46.59,0,0,1,59.1,59.07a38,38,0,0,1-1.05-7.45,18.9,18.9,0,0,1,0-2.11c0-.25,0-.45.07-.6s0-.13,0-.18a.28.28,0,0,0,0-.06h0l0-.17v-.17c1.47-16.23,13.94-28,29.19-28a28,28,0,0,1,24,13.34l1.64,2.65,1.72-2.6a30,30,0,0,1,24.87-13.39C154.89,20.34,167.37,32.1,168.83,48.33Z" transform="translate(-56.04 -18.34)"/></svg>