<svg id="Слой_1" data-name="Слой 1" xmlns="http://www.w3.org/2000/svg" xmlns:xlink="http://www.w3.org/1999/xlink" viewBox="0 0 475 50"><defs><style>.cls-1,.cls-3,.cls-6{fill:none;}.cls-2{clip-path:url(#clip-path);}.cls-3{stroke:#333;stroke-width:3px;}.cls-4{fill:#a36b3e;}.cls-5{fill:#fff;}.cls-6{stroke:#a36b3e;stroke-width:4px;}</style><clipPath id="clip-path" transform="translate(-41.04 -37.34)"><rect class="cls-1" x="41.04" y="37.34" width="475" height="50"/></clipPath></defs><title>logo epotaj</title><g class="cls-2"><path class="cls-3" d="M516,72.76H41M41,54h0Z" transform="translate(-41.04 -37.34)"/><path class="cls-4" d="M386.11,37.34H168.87v50H386.11Z" transform="translate(-41.04 -37.34)"/><path class="cls-5" d="M205.38,50.65a11.6,11.6,0,0,1,6.1,1.56,11.27,11.27,0,0,1,4.2,4.41,14.64,14.64,0,0,1,0,12.91,10.56,10.56,0,0,1-4.2,4.4,11.87,11.87,0,0,1-6.2,1.57,12.81,12.81,0,0,1-5.41-1.17,13.5,13.5,0,0,1-4.1-3.33l2.7-1.86a7.82,7.82,0,0,0,6.91,3.23,7.54,7.54,0,0,0,5.7-2.35,9.41,9.41,0,0,0,2.6-6H201.27V60.92h12.31a9.12,9.12,0,0,0-2.8-5.38,7.73,7.73,0,0,0-5.4-2.06A7.65,7.65,0,0,0,198.87,57l-2.6-2a13.88,13.88,0,0,1,3.9-3.42A14,14,0,0,1,205.38,50.65Zm17,24.17V51.43h20.1V74.82h-3.4V54.56h-13.2V74.91h-3.5Zm37.41.88a11.51,11.51,0,0,1-6.1-1.57,11.2,11.2,0,0,1-4.21-4.4,14,14,0,0,1-1.5-6.46,13.3,13.3,0,0,1,1.5-6.36,10.52,10.52,0,0,1,4.21-4.4,11.76,11.76,0,0,1,6.1-1.57,11.51,11.51,0,0,1,6.1,1.57,11.18,11.18,0,0,1,4.2,4.4,13.42,13.42,0,0,1,1.5,6.46,12.93,12.93,0,0,1-1.5,6.26,10.62,10.62,0,0,1-4.2,4.4A11.57,11.57,0,0,1,259.79,75.7Zm-.1-3.13a7.88,7.88,0,0,0,4.3-1.18,8.12,8.12,0,0,0,3-3.33,10.72,10.72,0,0,0,1.1-4.89,11.35,11.35,0,0,0-1.1-4.89A7.6,7.6,0,0,0,264,55a8.12,8.12,0,0,0-11.6,3.33,10.47,10.47,0,0,0-1.11,4.79,10.94,10.94,0,0,0,1.11,4.9,7.57,7.57,0,0,0,3,3.32A7.18,7.18,0,0,0,259.69,72.57Zm14.4-21.14h22.3v3.13h-9.8v13.7a4,4,0,0,0,1.1,2.94,4.59,4.59,0,0,0,3.1,1.07h3.1V75.4h-3.1a8.18,8.18,0,0,1-5.7-2,7,7,0,0,1-2-5.39V54.56h-9Zm49,0V74.82h-3.5V71.39a10.85,10.85,0,0,1-3.6,3.13,10.61,10.61,0,0,1-4.7,1.08A11.51,11.51,0,0,1,305.2,74a11.18,11.18,0,0,1-4.2-4.4,13.71,13.71,0,0,1-1.5-6.46,13.05,13.05,0,0,1,1.5-6.36,10.62,10.62,0,0,1,4.2-4.4,11.76,11.76,0,0,1,6.1-1.57A10.15,10.15,0,0,1,316.1,52a9.37,9.37,0,0,1,3.7,3.13V51.63h3.3Zm-12,21.14a7.88,7.88,0,0,0,4.3-1.18,8.12,8.12,0,0,0,3-3.33,10.72,10.72,0,0,0,1.1-4.89,11.35,11.35,0,0,0-1.1-4.89,7.6,7.6,0,0,0-3-3.33,8.49,8.49,0,0,0-8.6,0,9,9,0,0,0-3,3.33,10.6,10.6,0,0,0-1.1,4.79,11.07,11.07,0,0,0,1.1,4.9,7.57,7.57,0,0,0,3,3.32A7.4,7.4,0,0,0,311.1,72.57ZM327,74.82l9.1-12.33-8.2-11.06h3.9l7,9.69h3.4V51.43h3.5v9.69h3.41l7-9.69H360l-8.2,11.06,9.1,12.33H357l-7.9-10.57H345.8V74.82h-3.5V64.25H339l-7.9,10.57Z" transform="translate(-41.04 -37.34)"/><path class="cls-6" d="M198.67,62.39H360.61" transform="translate(-41.04 -37.34)"/></g></svg>