<svg id="Слой_1" data-name="Слой 1" xmlns="http://www.w3.org/2000/svg" viewBox="0 0 100 97.92"><defs><style>.cls-1{fill:#333;}</style></defs><title>main menu svg</title><path class="cls-1" d="M124,64.58H32.08a3.6,3.6,0,1,0,0,7.14H124a3.6,3.6,0,1,0,0-7.14Z" transform="translate(-28.04 -19.34)"/><path class="cls-1" d="M124,19.34H32.08a3.84,3.84,0,0,0-4,3.57,3.84,3.84,0,0,0,4,3.57H124a3.84,3.84,0,0,0,4-3.57A3.84,3.84,0,0,0,124,19.34Z" transform="translate(-28.04 -19.34)"/><path class="cls-1" d="M124,109.82H32.08a3.73,3.73,0,1,0,0,7.44H124a3.73,3.73,0,1,0,0-7.44Z" transform="translate(-28.04 -19.34)"/></svg>