<svg id="Слой_1" data-name="Слой 1" xmlns="http://www.w3.org/2000/svg" viewBox="0 0 92.1 88.5"><defs><style>.cls-1{fill:#f2c94c;}</style></defs><title>star svg</title><path class="cls-1" d="M71.06,23.93a.51.51,0,0,1,1,0L82.54,56.65A.5.5,0,0,0,83,57h34.07a.5.5,0,0,1,.3.9L89.81,78.14a.52.52,0,0,0-.18.56l10.53,32.73a.5.5,0,0,1-.77.56L71.84,91.77a.51.51,0,0,0-.6,0L43.69,112a.5.5,0,0,1-.77-.56L53.45,78.7a.52.52,0,0,0-.18-.56L25.69,57.9A.5.5,0,0,1,26,57H60.06a.5.5,0,0,0,.48-.35Z" transform="translate(-25.49 -23.58)"/></svg>