<svg id="Слой_1" data-name="Слой 1" xmlns="http://www.w3.org/2000/svg" viewBox="0 0 100 100"><defs><style>.cls-1{fill:#f2f2f2;}.cls-1,.cls-2{stroke:#333;stroke-width:2px;}.cls-2{fill:#333;}</style></defs><title>Twitter svg</title><path class="cls-1" d="M141,68.34a49,49,0,1,1-49-49A49,49,0,0,1,141,68.34Z" transform="translate(-42.04 -18.34)"/><path class="cls-2" d="M66.59,89.49a23.84,23.84,0,0,1-2.48-1.67h.76a27.33,27.33,0,0,0,16.36-5.64l2.4-1.8h-3a11.93,11.93,0,0,1-10.47-6.69h.75A7.72,7.72,0,0,0,74.55,73l2.69-1.34-3-.54a11.8,11.8,0,0,1-9.39-9.9,12.06,12.06,0,0,0,4.87,1h3.3l-2.75-1.83a11.37,11.37,0,0,1-5-9.49,12.23,12.23,0,0,1,.81-4.74A37.1,37.1,0,0,0,92,58.47l2.6.14-1.84-1.85a1.08,1.08,0,0,1-.2-.59,11.94,11.94,0,0,1,0-1.42A11.3,11.3,0,0,1,104,43.25c3.62,0,6.53,1,8.45,3.43l.38.48.6-.12a25.37,25.37,0,0,0,6.23-2.16A10.67,10.67,0,0,1,115.44,49l-3.1,1.86H116a14.29,14.29,0,0,0,3.61-.41l-2.78,3.7-.3.41.15.48c2.4,7.88,2.44,14.37,1,19.65a24.49,24.49,0,0,1-8.27,12.51c-7.63,6.25-18.49,8.38-26.41,7.32S69.73,91.32,66.59,89.49Z" transform="translate(-42.04 -18.34)"/></svg>