<svg id="Слой_1" data-name="Слой 1" xmlns="http://www.w3.org/2000/svg" viewBox="0 0 100.54 100.54"><defs><style>.cls-1{fill:#f2f2f2;}.cls-1,.cls-2{stroke:#333;stroke-width:2px;}.cls-2{fill:#333;}</style></defs><title>Whatsup svg</title><path class="cls-1" d="M143.58,67.61A49.27,49.27,0,1,1,94.31,18.34,49.27,49.27,0,0,1,143.58,67.61Z" transform="translate(-44.04 -17.34)"/><path class="cls-2" d="M65.18,97.32a2.07,2.07,0,0,0,0-.22l0-.06a6.82,6.82,0,0,1,.46-1.66l0-.09,0-.09C66.86,91.37,68,87.57,69,84.32l0-.16V84h0V82.1L69,81.86a29.44,29.44,0,1,1,54.43-20.09h0c3.17,16.36-7.91,31.7-23.79,34.89A31.93,31.93,0,0,1,81.06,94l-.19-.09h-.21l-.12,0-.07,0-.4-.13a1.85,1.85,0,0,0-.83,0,1.62,1.62,0,0,0-.7.3c-4,1.06-7.32,1.86-9.87,2.46l-.85.21Zm4.66-5.91-.37,1.48L71,92.64a43,43,0,0,0,4.68-1.12l.55-.16c1.21-.34,2.33-.66,3.45-.89a4.68,4.68,0,0,1,.82,0,1.08,1.08,0,0,1,.55.2l.09.09.11.06a24.43,24.43,0,0,0,17.62,3.41C113,92,123.25,78.39,121,64.17h0c-2.82-15.23-16.41-25.5-31.22-22.66A26.85,26.85,0,0,0,71,80.65l0,0,0,0a4.29,4.29,0,0,1,.43,4c-.37,1.14-.76,2.8-1.13,4.41C70.19,90,70,90.73,69.84,91.41Z" transform="translate(-44.04 -17.34)"/><path class="cls-2" d="M81.52,65.47l0,0,0,0a8.18,8.18,0,0,1,1-10.73,1.57,1.57,0,0,1,1.2-.39,7.43,7.43,0,0,1,.91.06h.06l.72.06a4.17,4.17,0,0,0,.49.67c.5,1,.88,1.91,1.28,2.82h0c.41,1,.83,1.93,1.39,3.05,0,.1.1.26-.19.78a9.92,9.92,0,0,1-.58.89l-.17.24c-.18.25-.39.54-.59.84a2.11,2.11,0,0,0-.63,1.45A2.15,2.15,0,0,0,87,66.59a25.24,25.24,0,0,0,10.73,9.56l.21.11h.27a3,3,0,0,0,2.31-.84l0,0,0,0c.37-.46.7-.88,1-1.25.15-.18.28-.35.39-.5.38-.48.66-.81.88-1a2,2,0,0,1,.3-.25l.05,0h0A57.88,57.88,0,0,1,108.61,75a4.7,4.7,0,0,1,.54.38A5.43,5.43,0,0,1,106.78,80a7.89,7.89,0,0,1-4.28,1.32C97,81.36,88,76.74,81.52,65.47Zm21.55,6.83h0Z" transform="translate(-44.04 -17.34)"/></svg>